<svg width="28" height="26" viewBox="0 0 28 26" fill="none" xmlns="http://www.w3.org/2000/svg">
<g clip-path="url(#clip0_1594_309)">
<path d="M13.8778 25.9999C14.1618 25.9999 14.5677 25.808 14.8654 25.6298C22.4819 20.6957 27.3116 14.953 27.3116 9.11427C27.3116 4.2624 24.0242 0.835938 19.7763 0.835938C17.1382 0.835938 15.1088 2.31617 13.8778 4.57764C12.6737 2.32988 10.6174 0.835938 7.97928 0.835938C3.7313 0.835938 0.443848 4.2624 0.443848 9.11427C0.443848 14.953 5.27356 20.6957 12.9037 25.6298C13.1878 25.808 13.5937 25.9999 13.8778 25.9999Z" fill="#EAF0FB"/>
<g clip-path="url(#clip1_1594_309)">
<path d="M6.69597 15.4164C6.69597 17.3931 7.96416 19.0492 9.64826 19.0492H10.8483C9.62103 18.1744 9.07554 16.8521 9.10284 15.3496C9.1233 13.6801 9.78462 12.4847 10.3779 11.7635H9.39601C7.87556 11.7635 6.69597 13.3662 6.69597 15.4164ZM10.0165 15.3696C9.97557 17.8071 11.9938 19.6502 15.1642 19.6769L16.0847 19.6836C16.9711 19.6903 17.6256 19.6235 17.9938 19.5234C18.5256 19.3965 19.037 19.0826 19.037 18.4482C19.037 18.1944 18.9688 18.0008 18.887 17.8605C18.8325 17.7804 18.8393 17.7069 18.9279 17.6735C19.3438 17.5066 19.6984 17.1126 19.6984 16.5917C19.6984 16.2845 19.6097 16.0241 19.4529 15.8371C19.3779 15.7369 19.3916 15.6501 19.5143 15.5766C19.8211 15.403 20.0393 15.029 20.0393 14.595C20.0393 14.2811 19.937 13.9539 19.7597 13.7936C19.6438 13.7001 19.6643 13.6333 19.7802 13.5332C19.9916 13.3595 20.1279 13.059 20.1279 12.6784C20.1279 12.0373 19.6166 11.5097 18.9416 11.5097H16.5415C15.9347 11.5097 15.5324 11.2025 15.5324 10.7083C15.5324 9.82016 16.6643 8.18403 16.6643 7.00873C16.6643 6.38097 16.262 6.02039 15.7233 6.02039C15.2393 6.02039 15.0006 6.3476 14.7415 6.84844C13.7256 8.77841 12.3756 10.341 11.346 11.6833C10.4733 12.8186 10.0437 13.7936 10.0165 15.3696Z" fill="#1C7BD2"/>
</g>
</g>
<defs>
<clipPath id="clip0_1594_309">
<rect width="27.3684" height="26" fill="white" transform="translate(0.443359)"/>
</clipPath>
<clipPath id="clip1_1594_309">
<rect width="13.6842" height="13.6842" fill="white" transform="matrix(-1 0 0 -1 20.1274 19.6843)"/>
</clipPath>
</defs>
</svg>
