<svg width="27" height="26" viewBox="0 0 27 26" fill="none" xmlns="http://www.w3.org/2000/svg">
<path d="M12.3604 20.5833H11.277C10.9701 20.5833 10.713 20.4793 10.5057 20.2713C10.2984 20.0633 10.1944 19.8061 10.1937 19.4999C10.193 19.1937 10.297 18.9366 10.5057 18.7286C10.7144 18.5206 10.9715 18.4166 11.277 18.4166H12.3604V16.1416C10.934 15.8888 9.76469 15.207 8.85252 14.0963C7.94035 12.9855 7.48463 11.6992 7.48535 10.2374C7.48535 8.59436 8.06782 7.19975 9.23277 6.05359C10.3977 4.90742 11.8014 4.33397 13.4437 4.33325C15.086 4.33253 16.49 4.90597 17.6557 6.05359C18.8214 7.2012 19.4035 8.59581 19.402 10.2374C19.402 11.6999 18.9459 12.9866 18.0338 14.0973C17.1216 15.2081 15.9527 15.8895 14.527 16.1416V18.4166H15.6104C15.9173 18.4166 16.1748 18.5206 16.3828 18.7286C16.5908 18.9366 16.6944 19.1937 16.6937 19.4999C16.693 19.8061 16.589 20.0636 16.3817 20.2723C16.1744 20.4811 15.9173 20.5847 15.6104 20.5833H14.527V21.6666C14.527 21.9735 14.423 22.231 14.215 22.439C14.007 22.647 13.7499 22.7506 13.4437 22.7499C13.1375 22.7492 12.8804 22.6452 12.6724 22.4379C12.4644 22.2306 12.3604 21.9735 12.3604 21.6666V20.5833ZM13.4437 14.0833C14.4909 14.0833 15.3847 13.7131 16.1249 12.9728C16.8652 12.2326 17.2354 11.3388 17.2354 10.2916C17.2354 9.24436 16.8652 8.35061 16.1249 7.61034C15.3847 6.87006 14.4909 6.49992 13.4437 6.49992C12.3965 6.49992 11.5027 6.87006 10.7624 7.61034C10.0222 8.35061 9.65202 9.24436 9.65202 10.2916C9.65202 11.3388 10.0222 12.2326 10.7624 12.9728C11.5027 13.7131 12.3965 14.0833 13.4437 14.0833Z" fill="#ED121E"/>
</svg>
