<svg width="20" height="19" viewBox="0 0 20 19" fill="none" xmlns="http://www.w3.org/2000/svg">
<path d="M5.19173 1.58325C5.19173 1.98938 5.57965 2.37492 5.9834 2.37492H13.9001C14.3062 2.37492 14.6917 1.987 14.6917 1.58325H16.2751C16.2751 2.21314 16.0248 2.81723 15.5794 3.26263C15.134 3.70803 14.53 3.95825 13.9001 3.95825H10.7334L10.7342 5.59067C12.2646 5.78368 13.672 6.52863 14.6922 7.68568C15.7124 8.84273 16.2752 10.3323 16.2751 11.8749V16.6249C16.2751 16.8349 16.1917 17.0362 16.0432 17.1847C15.8947 17.3332 15.6934 17.4166 15.4834 17.4166H4.40007C4.1901 17.4166 3.98874 17.3332 3.84027 17.1847C3.69181 17.0362 3.6084 16.8349 3.6084 16.6249V11.8749C3.60825 10.3322 4.17119 8.84251 5.19154 7.68544C6.21188 6.52837 7.61947 5.78351 9.15007 5.59067V3.95825H5.9834C4.66923 3.95825 3.6084 2.89742 3.6084 1.58325H5.19173ZM9.94173 8.70825C9.2434 8.70835 8.56469 8.93928 8.01122 9.36511C7.45774 9.79093 7.06055 10.3878 6.88144 11.0627C6.70234 11.7377 6.75137 12.4529 7.0209 13.0972C7.29044 13.7414 7.76536 14.2784 8.37177 14.6247C8.97817 14.9711 9.68204 15.1072 10.3739 15.012C11.0657 14.9168 11.7066 14.5956 12.1969 14.0984C12.6873 13.6012 12.9995 12.9558 13.085 12.2627C13.1705 11.5697 13.0246 10.8678 12.6698 10.2663L10.5014 12.4354L10.427 12.5003C10.2679 12.6234 10.0679 12.6812 9.86769 12.6622C9.66746 12.6431 9.482 12.5485 9.34897 12.3976C9.21594 12.2468 9.14533 12.0509 9.15147 11.8499C9.15761 11.6488 9.24004 11.4577 9.38202 11.3152L11.5504 9.14604C11.0629 8.85904 10.5074 8.70787 9.94173 8.70825Z" fill="#F3C935"/>
</svg>
