<svg width="20" height="19" viewBox="0 0 20 19" fill="none" xmlns="http://www.w3.org/2000/svg">
<g clip-path="url(#clip0_1594_296)">
<path d="M4.07432 17.6495C4.41826 17.9179 4.85446 17.8257 5.37455 17.4482L9.8121 14.185L14.258 17.4482C14.7781 17.8257 15.2059 17.9179 15.5582 17.6495C15.9021 17.3894 15.9776 16.9616 15.768 16.3493L14.0148 11.1316L18.4942 7.91039C19.0143 7.5413 19.224 7.15542 19.0898 6.736C18.9556 6.33335 18.5613 6.13202 17.9154 6.14041L12.4209 6.17396L10.7516 0.931124C10.5503 0.310376 10.2483 0 9.8121 0C9.38424 0 9.08228 0.310376 8.88096 0.931124L7.21164 6.17396L1.71714 6.14041C1.07123 6.13202 0.676966 6.33335 0.542749 6.736C0.400144 7.15542 0.618245 7.5413 1.13833 7.91039L5.61781 11.1316L3.86461 16.3493C3.65489 16.9616 3.73039 17.3894 4.07432 17.6495Z" fill="#F3C935"/>
</g>
<defs>
<clipPath id="clip0_1594_296">
<rect width="18.943" height="19" fill="white" transform="translate(0.5)"/>
</clipPath>
</defs>
</svg>
