<svg width="58" height="86" viewBox="0 0 58 86" fill="none" xmlns="http://www.w3.org/2000/svg">
<g id="Frame 223">
<g id="Group 203">
<path id="Rectangle 50" d="M5.46032 38.2222H51.873L57.3333 76.4444H0L5.46032 38.2222Z" fill="#864A14"/>
<ellipse id="Ellipse 26" cx="28.6666" cy="40.2698" rx="23.2064" ry="27.9841" fill="#E0B87D"/>
<path id="Vector 11" d="M9.324 42.125C8.58915 39.5268 8.76975 37.5488 9.3788 36.1258C10.0913 34.461 11.9114 34.1805 12.8101 35.8363C14.8649 39.6224 17.4752 46.5407 11.4653 44.4622C10.453 44.1121 9.63311 43.2179 9.324 42.125Z" fill="#642C07"/>
<path id="Vector 18" d="M48.125 42.125C48.8598 39.5268 48.6792 37.5488 48.0702 36.1258C47.3577 34.461 45.5375 34.1805 44.6389 35.8363C42.5841 39.6224 39.9738 46.5407 45.9837 44.4622C46.996 44.1121 47.8159 43.2179 48.125 42.125Z" fill="#642C07"/>
<path id="Vector 10" d="M17.7466 55.9683C21.7788 53.8923 25.027 53.3733 26.1471 53.3733C33.5395 52.6813 38.1878 54.815 39.5879 55.9683L27.9847 59.381L17.7466 55.9683Z" fill="#C28737"/>
<path id="Polygon 2" d="M31.0244 63.9134C30.2201 66.3262 26.844 66.4254 25.8995 64.064L24.7127 61.097C24.6195 60.8641 24.4947 60.6452 24.3418 60.4464L21.1275 56.2678C19.7464 54.4724 21.0263 51.873 23.2914 51.873H33.7016C36.026 51.873 37.2872 54.5923 35.7858 56.3667L32.4198 60.3447C32.1955 60.6098 32.0238 60.9153 31.9139 61.2448L31.0244 63.9134Z" fill="#C28737"/>
<ellipse id="Ellipse 28" cx="31.1073" cy="48.3222" rx="1.22695" ry="1.63593" transform="rotate(15.901 31.1073 48.3222)" fill="white"/>
<ellipse id="Ellipse 29" cx="1.22695" cy="1.63593" rx="1.22695" ry="1.63593" transform="matrix(-0.961736 0.273977 0.273977 0.961736 26.931 46.4127)" fill="white"/>
<ellipse id="Ellipse 30" cx="28.6669" cy="18.4286" rx="5.46032" ry="18.4286" fill="#864A14"/>
<ellipse id="Ellipse 31" cx="25.187" cy="22.7679" rx="5.46032" ry="14.728" transform="rotate(-16.5438 25.187 22.7679)" fill="#864A14"/>
<ellipse id="Ellipse 32" cx="5.46032" cy="14.728" rx="5.46032" ry="14.728" transform="matrix(-0.958602 -0.284749 -0.284749 0.958602 42.0634 9.93494)" fill="#864A14"/>
<g id="Group 200">
<ellipse id="Ellipse 33" cx="23.8888" cy="77.8095" rx="6.14286" ry="8.19048" fill="#864A14"/>
<ellipse id="Ellipse 34" cx="33.4444" cy="77.8095" rx="6.14286" ry="8.19048" fill="#864A14"/>
</g>
<g id="Group 202">
<ellipse id="Ellipse 33_2" cx="44.3653" cy="75.0794" rx="6.14286" ry="8.19048" fill="#864A14"/>
<ellipse id="Ellipse 34_2" cx="51.19" cy="75.0794" rx="6.14286" ry="8.19048" fill="#864A14"/>
</g>
<g id="Group 201">
<ellipse id="Ellipse 33_3" cx="6.14347" cy="75.0794" rx="6.14286" ry="8.19048" fill="#864A14"/>
<ellipse id="Ellipse 34_3" cx="12.9682" cy="75.0794" rx="6.14286" ry="8.19048" fill="#864A14"/>
</g>
</g>
</g>
</svg>
