<svg width="103" height="69" viewBox="0 0 103 69" fill="none" xmlns="http://www.w3.org/2000/svg">
<g id="Frame 224">
<g id="Group 197">
<path id="Vector 2" d="M89.3801 22.2107C97.6017 20.6904 100.39 15.9202 102.49 10.631C103.422 8.28387 100.729 5.81484 98.4664 6.93643C98.1859 7.07547 97.8832 7.16418 97.572 7.19852L82.6142 8.84902C81.535 8.96811 80.5067 9.37136 79.6342 10.0176L77.371 11.694C76.1324 12.6114 75.2844 13.9613 74.9954 15.4752L73.8271 21.5959C73.6849 22.341 73.3904 23.061 73.0134 23.7193C69.2212 30.3412 78.1343 22.566 82.8211 22.8877C85.1962 23.0507 85.5116 22.926 89.3801 22.2107Z" fill="#A36627"/>
<path id="Vector 2_2" d="M13.2997 22.2107C5.07806 20.6904 2.28972 15.9202 0.189418 10.631C-0.742622 8.28387 1.9507 5.81484 4.21341 6.93643C4.4939 7.07547 4.79663 7.16418 5.10781 7.19852L20.0656 8.84902C21.1448 8.96811 22.1731 9.37136 23.0456 10.0176L25.3088 11.694C26.5473 12.6114 27.3954 13.9613 27.6844 15.4752L28.8527 21.5959C28.9949 22.341 29.2894 23.061 29.6663 23.7193C33.4586 30.3412 24.5455 22.566 19.8587 22.8877C17.4836 23.0507 17.1681 22.926 13.2997 22.2107Z" fill="#A36627"/>
<path id="Subtract" d="M46.2152 0.273191C35.0123 -1.46502 25.3581 8.20207 27.1113 19.4026L31.9749 50.4743C32.6063 54.5079 34.6455 58.0163 37.5446 60.5307C39.0026 57.3166 42.2396 55.081 45.9988 55.081H56.7811C60.5624 55.081 63.8153 57.3429 65.2608 60.5875C68.2398 58.0305 70.3222 54.4306 70.9235 50.2934L75.4499 19.1516C77.0682 8.01725 67.4605 -1.51102 56.34 0.199783L53.5746 0.625226C51.8806 0.885835 50.1566 0.884728 48.4629 0.621944L46.2152 0.273191Z" fill="#E0B87D"/>
<rect id="Rectangle 49" x="37.7628" y="53.6013" width="27.7895" height="15.1579" rx="7.57895" fill="#E0B87D"/>
<g id="Group 198">
<path id="Vector 7" d="M73.1737 30.5182C74.986 27.7458 73.5427 25.371 71.7388 23.8483C70.261 22.6007 68.2908 23.6291 67.8354 25.6253C66.4025 31.9071 66.7856 38.7495 73.1737 30.5182Z" fill="#642C07"/>
<path id="Vector 11" d="M28.8763 30.5182C27.064 27.7458 28.5073 25.371 30.3112 23.8483C31.789 22.6007 33.7593 23.6291 34.2146 25.6253C35.6475 31.9071 35.2644 38.7495 28.8763 30.5182Z" fill="#642C07"/>
</g>
<path id="Polygon 1" d="M54.0851 59.489C53.386 61.9297 49.9273 61.9299 49.2279 59.4893L48.373 56.5059C48.2711 56.1502 48.0922 55.8212 47.8491 55.5422L46.0432 53.4696C44.2299 51.3885 46.5907 48.3229 49.066 49.5445L50.5383 50.2712C51.243 50.619 52.0695 50.619 52.7743 50.2712L54.247 49.5445C56.7223 48.3229 59.0831 51.3887 57.2695 53.4697L55.4636 55.542C55.2204 55.8211 55.0415 56.1503 54.9396 56.5061L54.0851 59.489Z" fill="white"/>
<path id="Vector 10" d="M41.5518 60.3869C45.2829 62.3079 48.2886 62.7882 49.325 62.7882C56.1655 63.4285 60.4667 61.4541 61.7623 60.3869H41.5518Z" fill="white"/>
<path id="Rectangle 48" d="M41.7454 19.0385C39.9402 14.3912 45.4287 10.3368 49.3402 13.4281L49.5927 13.6277C51.2968 14.9745 53.7192 14.9139 55.3539 13.4836C58.8336 10.4388 64.0941 13.9841 62.5779 18.3522L57.7911 32.1425C56.9817 34.4746 54.7839 36.0382 52.3153 36.0382C49.924 36.0382 47.7781 34.5696 46.9123 32.3405L41.7454 19.0385Z" fill="white"/>
</g>
</g>
</svg>
