<svg width="34" height="34" viewBox="0 0 34 34" fill="none" xmlns="http://www.w3.org/2000/svg">
<path id="Vector" d="M26.9877 0.55226L22.9033 2.15636L20.4231 4.70925V7.91461C20.3162 7.90986 19.7217 7.89196 18.9643 7.87471V7.18948C18.9643 6.75184 18.6726 6.46008 18.2349 6.46008C17.7973 6.46008 17.5055 6.75184 17.5055 7.18948V7.86046C16.7885 7.85889 16.0613 7.87109 15.3173 7.90036V7.18949C15.3173 6.75185 15.0256 6.46009 14.5879 6.46009C14.1503 6.46009 13.8585 6.75185 13.8585 7.18949V7.97017C12.7827 8.02863 11.8128 8.10346 10.941 8.19097V7.18947C10.941 6.75184 10.6492 6.46008 10.2116 6.46008C9.77392 6.46008 9.48216 6.75184 9.48216 7.18947V8.3491C8.46618 8.47445 7.65979 8.59462 7.2555 8.65682H7.25265L7.24837 8.65824C6.9881 8.70091 6.80986 8.741 6.56457 8.78361V7.48152C6.56457 7.04389 6.27281 6.75213 5.83517 6.75213C5.39753 6.75213 5.10577 7.04389 5.10577 7.48152V9.05286C3.40493 9.38387 2.20101 9.66992 1.45879 9.87201V8.35624C1.45879 7.9186 1.16703 7.62684 0.729397 7.62684C0.291759 7.62684 0 7.9186 0 8.35624V17.0363C0.510578 16.6716 0.948216 16.3067 1.45879 16.0149V11.3792C2.06416 11.2053 3.29135 10.8925 5.10578 10.533V13.6087C5.10578 13.7546 5.17843 13.8276 5.17843 13.9734C5.61607 13.7546 6.05399 13.6079 6.56457 13.462V10.2666C6.88767 10.2094 7.13256 10.1549 7.48487 10.0971C7.86662 10.0384 8.59419 9.93166 9.48216 9.81932V12.4406V12.5873H9.55481C9.99245 12.4415 10.4304 12.2959 10.941 12.15V9.65692C11.8044 9.56839 12.778 9.49173 13.8585 9.43184V11.4932C14.2962 11.4203 14.8068 11.3468 15.3173 11.2738V9.35917C16.0526 9.32928 16.7828 9.31762 17.5055 9.31927V10.9818C17.7243 10.9818 17.9437 10.9091 18.0896 10.9091H18.9643V9.3335C19.7063 9.35056 20.3527 9.37041 20.4231 9.3734V10.8365C21.3713 10.8365 22.2466 10.8362 23.3407 10.9091V7.18947C23.3407 6.75183 23.6325 6.46007 24.0701 6.46007H29.9053C30.3429 6.46007 30.6347 6.75183 30.6347 7.18947V11.4205C31.5829 11.4935 32.604 11.6394 33.5523 11.7852V4.70924L31.072 2.229L26.9877 0.55226ZM26.9877 3.5425C27.4253 3.5425 27.7171 3.83426 27.7171 4.2719C27.7171 4.70954 27.4253 5.00129 26.9877 5.00129C26.55 5.00129 26.2583 4.70954 26.2583 4.2719C26.2583 3.83426 26.55 3.5425 26.9877 3.5425ZM19.9858 12.4406C16.9223 13.8994 13.9318 15.5781 11.233 17.6204C7.29425 20.4651 4.01197 23.7465 0.292044 28.4146L0 28.7067V33.4478H6.49192L6.56457 33.2284C7.00221 32.0613 10.138 25.9353 14.0038 21.3401C17.3591 17.3284 20.6422 14.4111 23.268 12.5146C22.0281 12.4417 21.0069 12.4406 19.9858 12.4406ZM25.7483 12.6599C23.1954 14.1187 19.1837 17.4007 15.172 22.2148C11.525 26.6641 8.67954 32.0619 8.09602 33.4478H16.0467L16.1194 33.2284C17.5052 29.0708 19.329 25.1323 21.5172 21.4854C23.7783 17.8384 26.2586 14.7746 28.0091 12.8053C27.2797 12.7323 26.5506 12.7329 25.7483 12.6599ZM16.192 12.7326C13.4933 13.0973 11.378 13.6814 9.99217 14.0461C7.73104 14.7026 5.98048 15.2126 3.79229 16.3796C2.62526 17.0361 1.45851 17.7652 0.437353 18.6404L0 19.0051V26.4458C3.5011 22.2153 6.63694 19.224 10.3569 16.4523C12.1804 15.0664 14.1497 13.8997 16.192 12.7326ZM29.8326 12.8794C28.155 14.7758 25.2366 18.0572 22.7566 22.2148C20.6414 25.7159 18.8911 29.509 17.5782 33.4478H24.7268L24.7995 33.3025C25.5289 30.0202 26.4765 26.81 27.4977 23.6736C28.6647 20.0995 30.1244 16.5255 31.6561 13.0973C31.0726 13.0244 30.4891 12.9523 29.8326 12.8794ZM33.1149 13.3167C31.5102 16.8178 30.0511 20.4639 28.8112 24.1109C27.79 27.1744 26.915 30.3114 26.1856 33.4478H33.5523V13.3167L33.1149 13.3167Z" fill="#248543"/>
</svg>
