<svg width="105" height="86" viewBox="0 0 105 86" fill="none" xmlns="http://www.w3.org/2000/svg">
<g id="Frame 173">
<g id="Group 198">
<g id="Group 195">
<path id="Vector 5" d="M84.6212 2.66525C67.6279 -0.0855342 65.6734 22.2167 66.8204 33.7117L67.532 37.016L58.0793 24.8556C60.3183 -3.57957 76.7068 -1.78596 84.6212 2.66525Z" fill="#642C07"/>
<path id="Vector 6" d="M21.0163 2.66525C38.0095 -0.0855342 39.964 22.2167 38.8171 33.7117L38.1055 37.016L47.5581 24.8556C45.3191 -3.57957 28.9306 -1.78596 21.0163 2.66525Z" fill="#642C07"/>
</g>
<path id="Subtract" fill-rule="evenodd" clip-rule="evenodd" d="M48.697 15.41C39.8281 14.0339 32.1852 21.687 33.5731 30.5541L37.4235 55.1526C37.9233 58.3458 39.5377 61.1233 41.8328 63.1139C42.987 60.5693 45.5497 58.7995 48.5257 58.7995H57.0618C60.0552 58.7995 62.6305 60.5902 63.7748 63.1588C66.1332 61.1345 67.7817 58.2846 68.2578 55.0093L71.8412 30.3554C73.1224 21.5407 65.5162 13.9975 56.7125 15.3519L54.5232 15.6887C53.1821 15.895 51.8173 15.8941 50.4765 15.6861L48.697 15.41Z" fill="#E0B87D"/>
<path id="Rectangle 48" d="M45.1532 24.2659C43.7242 20.5868 48.0692 17.377 51.1658 19.8243L51.3657 19.9823C52.7148 21.0485 54.6325 21.0005 55.9266 19.8682C58.6814 17.4578 62.8459 20.2645 61.6456 23.7226L57.8561 34.6399C57.2153 36.4861 55.4754 37.7239 53.5211 37.7239C51.628 37.7239 49.9291 36.5613 49.2437 34.7966L45.1532 24.2659Z" fill="white"/>
<rect id="Rectangle 49" x="42.0004" y="57.6281" width="22" height="12" rx="6" fill="#E0B87D"/>
<g id="Group 194">
<g id="Group 192">
<path id="Vector 2" d="M82.9877 29.5549C89.1554 27.1523 90.6156 23.029 91.4638 18.6042C91.8401 16.6407 89.3793 15.1205 87.7862 16.3285C87.5887 16.4783 87.3665 16.5922 87.1296 16.6651L75.743 20.1688C74.9215 20.4216 74.1817 20.8878 73.5991 21.5198L72.088 23.1594C71.2611 24.0567 70.802 25.2322 70.802 26.4524L70.802 31.3854C70.802 31.9859 70.6799 32.5895 70.4844 33.1573C68.5184 38.8696 74.2953 31.5005 77.9877 31.0549C79.8588 30.8291 80.0856 30.6854 82.9877 29.5549Z" fill="#A36627"/>
</g>
<g id="Group 193">
<path id="Vector 2_2" d="M22.5132 29.5549C16.3455 27.1523 14.8853 23.029 14.0371 18.6042C13.6607 16.6407 16.1216 15.1205 17.7147 16.3285C17.9121 16.4783 18.1344 16.5922 18.3713 16.6651L29.7578 20.1688C30.5794 20.4216 31.3192 20.8878 31.9017 21.5198L33.4128 23.1594C34.2398 24.0567 34.6989 25.2322 34.6989 26.4524L34.6989 31.3854C34.6989 31.9859 34.821 32.5895 35.0164 33.1573C36.9825 38.8696 31.2055 31.5005 27.5132 31.0549C25.642 30.8291 25.4152 30.6854 22.5132 29.5549Z" fill="#A36627"/>
</g>
</g>
<path id="Vector 9" d="M49.0981 84C45.0981 79.6 44.7647 72.8333 45.0981 70C47.7647 71.5 54.698 73.6 61.098 70C62.698 76.4 59.4314 82 57.598 84C58.798 81.6 58.098 77.3333 57.598 75.5C57.198 79.9 54.4314 84.3333 53.098 86C50.298 83.2 49.2647 77.8333 49.0981 75.5C47.4981 76.7 48.4314 81.6667 49.0981 84Z" fill="#A36627"/>
<path id="Polygon 1" d="M54.9226 62.2892C54.3692 64.2214 51.631 64.2216 51.0773 62.2894L50.4005 59.9276C50.3198 59.646 50.1782 59.3855 49.9858 59.1647L48.5561 57.5239C47.1205 55.8763 48.9896 53.4494 50.9491 54.4165L52.1147 54.9918C52.6726 55.2671 53.3269 55.2671 53.8849 54.9918L55.0508 54.4165C57.0104 53.4494 58.8793 55.8765 57.4436 57.5239L56.0139 59.1645C55.8214 59.3855 55.6797 59.646 55.599 59.9278L54.9226 62.2892Z" fill="white"/>
<path id="Vector 10" d="M45.0004 63C47.9542 64.5208 50.3337 64.901 51.1542 64.901C56.5696 65.4079 59.9747 63.8449 61.0004 63H45.0004Z" fill="white"/>
<g id="Group 199">
<path id="Vector 7" d="M70.035 38.3539C71.4698 36.1591 70.3271 34.2791 68.899 33.0736C67.7291 32.0859 66.1693 32.9001 65.8089 34.4804C64.6745 39.4535 64.9778 44.8704 70.035 38.3539Z" fill="#642C07"/>
<path id="Vector 11" d="M34.9662 38.3539C33.5315 36.1591 34.6741 34.2791 36.1022 33.0736C37.2721 32.0859 38.8319 32.9001 39.1924 34.4804C40.3267 39.4535 40.0235 44.8704 34.9662 38.3539Z" fill="#642C07"/>
</g>
</g>
</g>
</svg>
