<svg width="82" height="72" viewBox="0 0 82 72" fill="none" xmlns="http://www.w3.org/2000/svg">
<g id="Group 193">
<path id="Vector 4" d="M70.4541 0C72.0443 10.2479 58.6013 11.3374 51.6811 10.6012L49.6934 10.1595L56.9817 15.9018C74.1204 14.665 73.1044 4.78528 70.4541 0Z" fill="#642C07"/>
<path id="Vector 5" d="M11.4404 0C9.85025 10.2479 23.2932 11.3374 30.2134 10.6012L32.2012 10.1595L24.9128 15.9018C7.77418 14.665 8.79013 4.78528 11.4404 0Z" fill="#642C07"/>
<g id="Group 190">
<path id="Vector 2" d="M58.9738 19.0822L53.5001 25.8274C52.7975 26.6931 52.3845 27.8451 53.059 28.7329C54.2667 30.3225 57.3893 32.3282 64.2073 33.3497C70.8467 34.3444 75.6506 30.1473 78.5014 25.931C80.1542 23.4866 78.4759 20.4463 75.5868 19.8466L63.7342 17.3865C61.9552 17.0172 60.1187 17.6714 58.9738 19.0822Z" fill="#C28737"/>
<path id="Vector 3" d="M22.0809 19.0822L27.5546 25.8274C28.2572 26.6931 28.6702 27.8451 27.9957 28.7329C26.788 30.3225 23.6653 32.3282 16.8474 33.3497C10.2079 34.3444 5.40409 30.1473 2.55325 25.931C0.90048 23.4866 2.57875 20.4463 5.46788 19.8466L17.3205 17.3865C19.0995 17.0172 20.9359 17.6714 22.0809 19.0822Z" fill="#C28737"/>
</g>
<path id="Subtract" fill-rule="evenodd" clip-rule="evenodd" d="M34.0904 9.71777C25.9547 9.71777 19.7401 16.9808 20.9983 25.0186L25.2596 52.2423C25.7593 55.4352 27.3735 58.2125 29.6682 60.203C30.8225 57.6588 33.385 55.8892 36.3608 55.8892H44.8968C47.8906 55.8892 50.466 57.6802 51.6102 60.2491C53.9689 58.2248 55.6178 55.3746 56.0938 52.099L60.0507 24.8754C61.2125 16.8821 55.0143 9.71777 46.937 9.71777H34.0904Z" fill="#E0B87D"/>
<path id="Subtract_2" fill-rule="evenodd" clip-rule="evenodd" d="M34.453 59.1902C31.5255 59.1902 29.1523 61.5634 29.1523 64.4908V65.3742C29.1523 67.4411 30.3353 69.2316 32.0611 70.1058C31.8933 69.5895 31.8027 69.0385 31.8027 68.4663V67.1411C31.8027 64.2137 34.1758 61.8405 37.1033 61.8405H44.1707C47.0982 61.8405 49.4714 64.2137 49.4714 67.1411V68.4663C49.4714 69.0385 49.3807 69.5895 49.2129 70.1058C50.9387 69.2316 52.1217 67.4411 52.1217 65.3742V64.4908C52.1217 61.5634 49.7485 59.1902 46.821 59.1902H34.453Z" fill="#E0B87D"/>
<rect id="Rectangle 45" x="33.1289" y="64.4907" width="15.0184" height="7.5092" rx="3.7546" fill="#C28737"/>
<g id="Group 189">
<path id="Rectangle 46" d="M19.0274 28.962C19.1863 27.6909 20.1126 26.6493 21.3565 26.3431L22.3676 26.0943C24.282 25.6231 26.1425 27.0397 26.1974 29.0105L26.2736 31.7439C26.2788 31.9306 26.301 32.1164 26.3397 32.2991L26.7946 34.4443C27.2402 36.5457 25.4601 38.4499 23.3335 38.1468L23.0297 38.1035C22.1585 37.9793 21.3815 37.4898 20.8933 36.7575L19.1396 34.1268C18.7279 33.5094 18.5521 32.7645 18.6441 32.0282L19.0274 28.962Z" fill="#864A14"/>
</g>
<g id="Group 191">
<path id="Rectangle 46_2" d="M62.5742 28.962C62.4153 27.6909 61.489 26.6493 60.245 26.3431L59.234 26.0943C57.3196 25.6231 55.4591 27.0397 55.4041 29.0105L55.3279 31.7439C55.3227 31.9306 55.3006 32.1164 55.2619 32.2991L54.807 34.4443C54.3614 36.5457 56.1415 38.4499 58.2681 38.1468L58.5718 38.1035C59.4431 37.9793 60.2201 37.4898 60.7082 36.7575L62.462 34.1268C62.8736 33.5094 63.0495 32.7645 62.9574 32.0282L62.5742 28.962Z" fill="#864A14"/>
</g>
<ellipse id="Ellipse 25" cx="40.6386" cy="9.93865" rx="11.0429" ry="5.96319" fill="#E0B87D"/>
<path id="Rectangle 48" d="M32.5396 19.8916C31.1105 16.2125 35.4556 13.0027 38.5522 15.45L38.7521 15.608C40.1012 16.6742 42.0189 16.6263 43.313 15.4939C46.0677 13.0835 50.2323 15.8902 49.032 19.3483L45.2425 30.2656C44.6016 32.1119 42.8618 33.3497 40.9075 33.3497C39.0143 33.3497 37.3155 32.1871 36.63 30.4224L32.5396 19.8916Z" fill="white"/>
</g>
</svg>
